<?xml version="1.0" encoding="utf-8"?>
<!-- Generator: Adobe Illustrator 19.0.0, SVG Export Plug-In . SVG Version: 6.00 Build 0)  -->
<svg version="1.1" id="Layer_1" xmlns="http://www.w3.org/2000/svg" xmlns:xlink="http://www.w3.org/1999/xlink" x="0px" y="0px"
	 width="375px" height="40px" viewBox="0 0 375 40" style="enable-background:new 0 0 375 40;" xml:space="preserve">
<style type="text/css">
	.st0{fill:#FFFFFF;}
</style>
<g id="XMLID_6260_">
	<g id="XMLID_6269_">
		<g id="XMLID_6286_">
			<path id="XMLID_6321_" class="st0" d="M5.8,18.9c-1.5-0.8-2.9-2.1-2.9-3.8c0-2.3,1.8-4,5-4c1.1,0,1.9,0.3,3,0.5
				c0.3,0.5,0.5,1.8,0.5,3.1c-0.1,0.3-0.7,0.3-0.8,0.1c-0.3-1.1-1.1-2.8-3-2.8C5.7,12,5,13.1,5,14.2c0,1.2,0.9,1.9,2.2,2.5l2,1
				c1.2,0.6,2.6,1.9,2.6,4.1c0,2.5-2.1,4.1-5.2,4.1c-2,0-3.2-0.7-3.7-1c-0.3-0.5-0.7-1.6-0.7-3.3c0.1-0.3,0.6-0.4,0.8-0.1
				C3.2,22.7,4.6,25,6.8,25c1.6,0,2.7-0.8,2.7-2.3c0-1-0.4-2.1-2.2-3L5.8,18.9z"/>
			<path id="XMLID_6319_" class="st0" d="M25.7,13.3c0-0.8,0-0.8-0.7-0.8h-1c-2,0-2.8,0.2-3.6,2.4c-0.3,0.2-0.7,0.1-0.8-0.2
				c0.4-1.4,0.7-3,0.9-3.8c0.1-0.1,0.5-0.1,0.6,0c0,0.6,0.5,0.6,1.8,0.6h8.9c1.2,0,1.4,0,1.7-0.6c0.2-0.1,0.5-0.1,0.6,0.1
				c-0.3,0.8-0.4,2.5-0.3,3.8c-0.1,0.3-0.7,0.3-0.8,0c-0.2-2.1-1.1-2.3-3-2.3h-1.1c-0.6,0-0.7,0-0.7,0.8v8.8c0,2.2,0.1,2.4,1.5,2.6
				l0.9,0.1c0.2,0.2,0.2,0.7-0.1,0.8c-1.3-0.1-2.5-0.1-3.5-0.1c-1,0-2.2,0-3.5,0.1c-0.3-0.1-0.3-0.6-0.1-0.8l0.9-0.1
				c1.4-0.2,1.5-0.3,1.5-2.6V13.3z"/>
			<path id="XMLID_6316_" class="st0" d="M44.5,20.5c-0.7,0-0.8,0-1.1,0.8l-0.7,2.1c-0.4,1-0.3,1.2,0.4,1.3l0.9,0.2
				c0.3,0.2,0.2,0.7-0.1,0.8c-0.8-0.1-1.6-0.1-2.5-0.1c-0.9,0-1.7,0.1-2.2,0.1c-0.3-0.1-0.3-0.6-0.1-0.8l0.7-0.2
				c1-0.2,1.3-0.6,2-2.1l3.1-7.4c0.5-1.3,0.8-2.1,0.8-2.7c0.6-0.2,1.2-0.8,1.3-1.2c0.3-0.1,0.5,0,0.5,0.2c0.1,0.3,0.6,2,1.4,3.9
				l2.9,7.7c0.4,1.1,0.7,1.5,1.8,1.7l0.5,0.1c0.3,0.2,0.2,0.7-0.1,0.8c-0.8-0.1-1.6-0.1-2.7-0.1c-1.2,0-2.1,0-2.9,0.1
				c-0.3-0.1-0.4-0.7-0.1-0.8l0.6-0.1c0.8-0.1,0.8-0.3,0.4-1.3l-0.8-2.1c-0.3-0.7-0.4-0.8-1.1-0.8H44.5z M47,19.5
				c0.8,0,0.9-0.1,0.6-1l-1-2.7c-0.3-0.7-0.4-1-0.5-1.2H46c-0.1,0.1-0.2,0.4-0.5,1.1l-1.2,2.9c-0.4,0.9-0.3,0.9,0.4,0.9H47z"/>
			<path id="XMLID_6313_" class="st0" d="M63.7,15.3c0-2.1,0-2.6-0.8-2.7L62,12.4c-0.3,0-0.3-0.7,0-0.8c1.8-0.1,3.6-0.2,5.3-0.2
				c3,0,6.2,0.5,6.2,3.9c0,2.1-1.6,3-2.9,3.4c-0.1,0.1-0.1,0.3,0,0.5c1.6,2.7,3,4.3,4.1,5.1c0.6,0.5,1.2,0.6,1.7,0.7
				c0.1,0.1,0.1,0.4,0,0.5c-0.3,0.1-0.7,0.2-1.3,0.2c-1.9,0-3.1-0.6-4.5-2.4c-0.8-1-1.7-2.4-2.3-3.5c-0.3-0.4-0.8-0.5-1.3-0.5
				c-0.8,0-0.9,0.1-0.9,0.5v2.3c0,2.2,0.1,2.4,1.5,2.6l0.7,0.1c0.2,0.2,0.2,0.7-0.1,0.8c-1.3-0.1-2.4-0.1-3.4-0.1c-1,0-2,0-3.1,0.1
				c-0.3-0.1-0.4-0.7-0.1-0.8l0.5-0.1c1.4-0.3,1.5-0.3,1.5-2.6V15.3z M66.1,17.6c0,0.8,0,0.8,1.6,0.8c2.1,0,3.2-0.8,3.2-3
				c0-1.6-1.1-3-3.4-3c-1.2,0-1.4,0.1-1.4,0.9V17.6z"/>
			<path id="XMLID_6311_" class="st0" d="M87.7,13.3c0-0.8,0-0.8-0.7-0.8h-1c-2,0-2.8,0.2-3.6,2.4c-0.3,0.2-0.7,0.1-0.8-0.2
				c0.4-1.4,0.7-3,0.9-3.8c0.1-0.1,0.4-0.1,0.6,0c0,0.6,0.5,0.6,1.8,0.6h8.9c1.2,0,1.4,0,1.7-0.6c0.2-0.1,0.5-0.1,0.6,0.1
				c-0.3,0.8-0.4,2.5-0.3,3.8c-0.1,0.3-0.7,0.3-0.8,0c-0.2-2.1-1.1-2.3-3-2.3h-1.1c-0.6,0-0.7,0-0.7,0.8v8.8c0,2.2,0.1,2.4,1.5,2.6
				l0.9,0.1c0.2,0.2,0.2,0.7-0.1,0.8c-1.3-0.1-2.5-0.1-3.5-0.1c-1,0-2.2,0-3.5,0.1c-0.3-0.1-0.3-0.6-0.1-0.8l0.9-0.1
				c1.4-0.2,1.5-0.3,1.5-2.6V13.3z"/>
			<path id="XMLID_6309_" class="st0" d="M106.1,14.9c0-2.2-0.1-2.3-1.5-2.6l-0.6-0.1c-0.2-0.2-0.2-0.7,0.1-0.8
				c1.2,0.1,2.2,0.1,3.3,0.1c1,0,2,0,3.3-0.1c0.3,0.1,0.3,0.6,0.1,0.8l-0.6,0.1c-1.4,0.2-1.5,0.4-1.5,2.6v7.2c0,2.2,0.1,2.3,1.5,2.6
				l0.6,0.1c0.2,0.2,0.2,0.7-0.1,0.8c-1.2-0.1-2.3-0.1-3.3-0.1c-1,0-2,0-3.3,0.1c-0.3-0.1-0.3-0.6-0.1-0.8l0.6-0.1
				c1.4-0.2,1.5-0.3,1.5-2.6V14.9z"/>
			<path id="XMLID_6307_" class="st0" d="M132.8,16.5c0-3.2-0.2-4-1.4-4.1l-1-0.1c-0.2-0.2-0.2-0.6,0.1-0.8c1.2,0.1,1.9,0.1,2.9,0.1
				c0.9,0,1.6,0,2.7-0.1c0.3,0.2,0.3,0.6,0,0.8l-1,0.1c-0.8,0.1-1.1,1-1.1,4.1v5.4c0,0.6,0,3.2,0.1,3.7c-0.1,0.2-0.4,0.4-0.7,0.3
				c-0.4-0.5-1-1.1-3-3.3l-4.9-5.2c-1.2-1.3-2.1-2.1-2.5-2.5c-0.1,0-0.1,0.4-0.1,1.3v4.2c0,3.2,0.2,4,1.4,4.1l1,0.1
				c0.3,0.2,0.2,0.6-0.1,0.8c-1.2-0.1-1.9-0.1-2.9-0.1c-0.9,0-1.5,0-2.7,0.1c-0.3-0.1-0.3-0.6,0-0.8l1-0.1c0.8-0.1,1.1-1,1.1-4.1
				v-5.7c0-1.1,0-1.5-0.7-2c-0.3-0.2-0.9-0.4-1.2-0.5l-0.5-0.1c-0.2-0.2-0.2-0.7,0.1-0.8c1.2,0.1,2.1,0.1,2.8,0.1
				c0.4,0,0.9,0,1.3-0.1c0.6,1.2,1.8,2.6,3.1,3.9l3,3.1c0.7,0.7,2.6,2.7,2.9,3c0.2-0.1,0.2-0.5,0.2-1.3V16.5z"/>
			<path id="XMLID_6305_" class="st0" d="M155.7,22.6c0-1.5,0-1.7-1.5-1.9l-1-0.2c-0.2-0.2-0.2-0.6,0-0.8c1.3,0.1,2.7,0.1,3.6,0.1
				c0.9,0,2,0,2.7-0.1c0.3,0.2,0.3,0.6,0.1,0.8l-0.6,0.1c-0.8,0.2-1,0.4-1,1.8v0.9c0,0.8,0.1,1.3,0.5,1.5c0.1,0.1,0.1,0.4,0,0.5
				c-0.4,0-1,0.2-1.9,0.4c-0.9,0.2-2,0.4-3.2,0.4c-2.9,0-5.2-0.7-6.9-2.4c-1.3-1.3-2-3.2-2-4.9c0-1.8,0.6-3.6,2-5
				c1.5-1.5,3.7-2.5,7.1-2.5c1.8,0,3.3,0.5,4.3,0.6c0,0.6,0.1,1.9,0.3,3.6c-0.2,0.3-0.6,0.3-0.8,0c-0.8-2.5-2.2-3.4-4.6-3.4
				c-3.4,0-5.5,2.6-5.5,6.3c0,3.9,2.4,6.6,6.3,6.6c1.7,0,1.9-0.3,1.9-1.6V22.6z"/>
			<path id="XMLID_6301_" class="st0" d="M213.4,15.3c0-2.1,0-2.6-0.9-2.7l-1-0.1c-0.3-0.1-0.3-0.7,0-0.8c1.6-0.1,3.5-0.2,5.4-0.2
				c1.6,0,2.9,0.1,4.1,0.5c1.2,0.4,2,1.3,2,2.8c0,1.4-0.9,2.2-2.6,2.8c-0.1,0.2,0.1,0.3,0.8,0.4c1.2,0.3,2.9,1.3,2.9,3.5
				c0,1.7-0.9,2.7-2.1,3.3c-1.2,0.6-2.9,0.7-4.4,0.7c-0.6,0-1.7-0.1-2.9-0.1c-1,0-2.1,0-3.4,0.1c-0.3-0.1-0.3-0.6-0.1-0.8l0.6-0.1
				c1.4-0.2,1.5-0.3,1.5-2.6V15.3z M215.8,17c0,0.5,0.1,0.5,1.1,0.5c2,0,3.4-0.5,3.4-2.5c0-1.9-1.4-2.7-3.1-2.7
				c-1.3,0-1.4,0.3-1.4,0.9V17z M215.8,22.1c0,1.9,0.4,2.5,2.4,2.5c1.6,0,3.1-0.7,3.1-2.9c0-2.5-1.9-3.3-4-3.3
				c-1.4,0-1.5,0.1-1.5,0.5V22.1z"/>
			<path id="XMLID_6299_" class="st0" d="M234.4,14.9c0-2.2-0.2-2.3-1.5-2.6l-0.5-0.1c-0.2-0.2-0.2-0.7,0.1-0.8
				c1.1,0.1,2.1,0.1,3.1,0.1c1,0,2,0,3.3-0.1c0.3,0.1,0.3,0.6,0.1,0.8l-0.6,0.1c-1.4,0.2-1.5,0.4-1.5,2.6v4.5c0,3.2,1.1,5.4,4.2,5.4
				c2.9,0,4.1-2.2,4.1-5.4v-3c0-3.2-0.2-3.9-1.6-4.1l-0.7-0.1c-0.2-0.2-0.2-0.6,0.1-0.8c1,0.1,1.8,0.1,2.7,0.1c0.9,0,1.6,0,2.7-0.1
				c0.3,0.2,0.3,0.6,0,0.8l-1,0.1c-0.8,0.1-1.1,1-1.1,4.1v3.2c0,4.1-1.9,6.3-6,6.3c-2.1,0-3.6-0.4-4.6-1.3c-1-1-1.4-2.4-1.4-4.5
				V14.9z"/>
			<path id="XMLID_6297_" class="st0" d="M260.2,18.9c-1.5-0.8-2.9-2.1-2.9-3.8c0-2.3,1.8-4,5-4c1.1,0,1.9,0.3,3,0.5
				c0.3,0.5,0.5,1.8,0.4,3.1c-0.1,0.3-0.7,0.3-0.8,0.1c-0.3-1.1-1.1-2.8-3-2.8c-1.9,0-2.6,1.1-2.6,2.2c0,1.2,0.9,1.9,2.2,2.5l2,1
				c1.2,0.6,2.6,1.9,2.6,4.1c0,2.5-2.1,4.1-5.2,4.1c-2,0-3.2-0.7-3.7-1c-0.3-0.5-0.7-1.6-0.7-3.3c0.1-0.3,0.6-0.4,0.8-0.1
				c0.3,1.2,1.7,3.4,3.8,3.4c1.6,0,2.7-0.8,2.7-2.3c0-1-0.4-2.1-2.2-3L260.2,18.9z"/>
			<path id="XMLID_6295_" class="st0" d="M277.1,14.9c0-2.2-0.1-2.3-1.5-2.6l-0.6-0.1c-0.2-0.2-0.2-0.7,0.1-0.8
				c1.3,0.1,2.2,0.1,3.3,0.1c1,0,2,0,3.3-0.1c0.3,0.1,0.3,0.6,0.1,0.8l-0.6,0.1c-1.4,0.2-1.5,0.4-1.5,2.6v7.2c0,2.2,0.1,2.3,1.5,2.6
				l0.6,0.1c0.2,0.2,0.2,0.7-0.1,0.8c-1.2-0.1-2.3-0.1-3.3-0.1c-1,0-2,0-3.3,0.1c-0.3-0.1-0.3-0.6-0.1-0.8l0.6-0.1
				c1.4-0.2,1.5-0.3,1.5-2.6V14.9z"/>
			<path id="XMLID_6293_" class="st0" d="M303.8,16.5c0-3.2-0.2-4-1.4-4.1l-1-0.1c-0.2-0.2-0.2-0.6,0.1-0.8c1.2,0.1,1.9,0.1,2.9,0.1
				c0.9,0,1.6,0,2.7-0.1c0.3,0.2,0.3,0.6,0,0.8l-1,0.1c-0.8,0.1-1.1,1-1.1,4.1v5.4c0,0.6,0,3.2,0.1,3.7c-0.1,0.2-0.4,0.4-0.7,0.3
				c-0.4-0.5-1-1.1-3-3.3l-4.9-5.2c-1.2-1.3-2.1-2.1-2.5-2.5c-0.1,0-0.1,0.4-0.1,1.3v4.2c0,3.2,0.2,4,1.4,4.1l1,0.1
				c0.3,0.2,0.2,0.6-0.1,0.8c-1.2-0.1-1.9-0.1-2.9-0.1s-1.5,0-2.7,0.1c-0.3-0.1-0.3-0.6,0-0.8l1-0.1c0.8-0.1,1.1-1,1.1-4.1v-5.7
				c0-1.1,0-1.5-0.7-2c-0.3-0.2-0.9-0.4-1.2-0.5l-0.5-0.1c-0.2-0.2-0.2-0.7,0.1-0.8c1.2,0.1,2.1,0.1,2.8,0.1c0.4,0,0.9,0,1.3-0.1
				c0.6,1.2,1.8,2.6,3.1,3.9l3,3.1c0.7,0.7,2.6,2.7,2.9,3c0.2-0.1,0.2-0.5,0.2-1.3V16.5z"/>
			<path id="XMLID_6291_" class="st0" d="M317.7,14.9c0-2.2-0.1-2.3-1.3-2.6l-0.4-0.1c-0.2-0.1-0.2-0.7,0.1-0.8c0.5,0,1,0.1,1.4,0.1
				c0.5,0,1,0,1.5,0h4.6c1.4,0,2.7,0,3-0.1c0,0.4,0.2,1.9,0.4,3.3c-0.1,0.3-0.6,0.3-0.8,0.1c-0.2-0.8-0.4-1.3-0.6-1.5
				c-0.5-0.8-2-0.8-2.7-0.8h-1.4c-1.1,0-1.2,0-1.2,1V17c0,0.6,0,0.6,0.6,0.6h1.5c1.7,0,1.9-0.3,2.1-1.2l0.2-0.6
				c0.2-0.2,0.6-0.2,0.8,0.1c-0.1,0.9-0.1,1.5-0.1,2.2c0,0.8,0,1.4,0.1,2.3c-0.2,0.3-0.6,0.3-0.8,0.1l-0.2-0.6
				c-0.3-1-0.4-1.2-2.1-1.2h-1.5c-0.6,0-0.6,0.1-0.6,0.7v2.3c0,1,0.1,2,0.4,2.3c0.3,0.3,0.9,0.4,2.7,0.4c2.1,0,3.2-0.1,4.2-2.7
				c0.2-0.2,0.7-0.2,0.8,0.1c-0.2,1.3-0.6,2.9-1,3.6c-1,0-1.9-0.1-2.8-0.1c-0.9,0-1.8,0-2.6,0H319c-1,0-2,0-3.6,0.1
				c-0.3-0.1-0.3-0.6-0.1-0.8l0.9-0.1c1.4-0.2,1.5-0.3,1.5-2.6V14.9z"/>
			<path id="XMLID_6289_" class="st0" d="M340,18.9c-1.5-0.8-2.9-2.1-2.9-3.8c0-2.3,1.8-4,5-4c1.1,0,1.9,0.3,3,0.5
				c0.3,0.5,0.5,1.8,0.4,3.1c-0.1,0.3-0.7,0.3-0.8,0.1c-0.3-1.1-1.1-2.8-3-2.8c-1.9,0-2.6,1.1-2.6,2.2c0,1.2,0.9,1.9,2.2,2.5l2,1
				c1.2,0.6,2.6,1.9,2.6,4.1c0,2.5-2.1,4.1-5.2,4.1c-2,0-3.2-0.7-3.7-1c-0.3-0.5-0.7-1.6-0.7-3.3c0.1-0.3,0.6-0.4,0.8-0.1
				c0.3,1.2,1.7,3.4,3.8,3.4c1.6,0,2.7-0.8,2.7-2.3c0-1-0.4-2.1-2.2-3L340,18.9z"/>
			<path id="XMLID_6287_" class="st0" d="M358.4,18.9c-1.5-0.8-2.9-2.1-2.9-3.8c0-2.3,1.8-4,5-4c1.1,0,1.9,0.3,3,0.5
				c0.3,0.5,0.5,1.8,0.4,3.1c-0.1,0.3-0.7,0.3-0.8,0.1c-0.3-1.1-1.1-2.8-3-2.8c-1.9,0-2.6,1.1-2.6,2.2c0,1.2,0.9,1.9,2.1,2.5l2,1
				c1.2,0.6,2.6,1.9,2.6,4.1c0,2.5-2.1,4.1-5.2,4.1c-2,0-3.2-0.7-3.7-1c-0.3-0.5-0.7-1.6-0.7-3.3c0.1-0.3,0.6-0.4,0.8-0.1
				c0.3,1.2,1.7,3.4,3.8,3.4c1.6,0,2.7-0.8,2.7-2.3c0-1-0.4-2.1-2.2-3L358.4,18.9z"/>
		</g>
		<g id="XMLID_6270_">
			<g id="XMLID_6281_">
				<g id="XMLID_6282_">
					<path id="XMLID_6283_" class="st0" d="M190,37.5c-0.9,0-1.7-0.2-2.5-0.4c-0.7-0.1-1.3-0.3-1.8-0.3c-0.5,0-1.1,0.1-1.8,0.3
						c-0.7,0.2-1.6,0.3-2.4,0.4c-0.5,0-0.9-0.1-1.4-0.2c-1.4-0.5-2.4-1.6-3.1-2.4c-0.4-0.5-0.8-0.9-1.2-1.2c-0.4-0.3-1-0.5-1.5-0.8
						c-1.1-0.5-2.3-1-3.3-2.2c-0.8-1.2-1-2.6-1.1-3.7c-0.1-0.6-0.1-1.3-0.3-1.7c-0.1-0.5-0.4-0.9-0.8-1.5c-0.6-1-1.3-2.2-1.4-3.7
						c0-1.5,0.8-2.8,1.4-3.7c0.3-0.6,0.6-1,0.7-1.5c0.2-0.5,0.2-1.1,0.3-1.8c0.1-1.2,0.2-2.5,1-3.7c0.9-1.2,2.2-1.7,3.3-2.2
						c0.6-0.2,1.1-0.5,1.5-0.8c0.4-0.3,0.8-0.7,1.2-1.2c0.7-0.9,1.7-1.9,3.1-2.4c0.4-0.1,0.9-0.2,1.4-0.2c0.9,0,1.7,0.2,2.5,0.4
						c0.6,0.1,1.3,0.3,1.8,0.3c0.5,0,1.1-0.1,1.8-0.3c0.7-0.2,1.6-0.4,2.5-0.4c0.5,0,1,0.1,1.4,0.2c1.4,0.5,2.4,1.6,3.1,2.5
						c0.4,0.5,0.8,0.9,1.2,1.2c0.4,0.3,0.9,0.5,1.5,0.8c1.1,0.5,2.3,1,3.3,2.2c0.8,1.2,1,2.6,1.1,3.8c0.1,0.6,0.1,1.3,0.3,1.7l0,0
						c0.1,0.4,0.4,0.9,0.7,1.5c0.6,1,1.3,2.2,1.4,3.7c0,1.5-0.8,2.8-1.4,3.7c-0.3,0.6-0.6,1-0.7,1.5c-0.2,0.5-0.2,1.1-0.3,1.7
						c-0.1,1.2-0.2,2.5-1.1,3.7c-0.9,1.2-2.2,1.7-3.3,2.2c-0.6,0.2-1.1,0.5-1.5,0.8c-0.4,0.3-0.8,0.7-1.2,1.2
						c-0.7,0.9-1.7,1.9-3.1,2.4C191,37.4,190.6,37.5,190,37.5z M185.9,36.3c0.6,0,1.2,0.1,1.8,0.3c0.7,0.2,1.5,0.3,2.3,0.3
						c0.4,0,0.8-0.1,1.2-0.2c1.3-0.5,2.1-1.4,2.8-2.3c0.4-0.5,0.9-1,1.3-1.3c0.4-0.3,1-0.6,1.6-0.9c1-0.4,2.2-0.9,3-2
						c0.7-1.1,0.8-2.3,0.9-3.4c0.1-0.7,0.1-1.3,0.3-1.9c0.1-0.5,0.5-1,0.8-1.6c0.6-1,1.2-2.1,1.3-3.4c0-1.4-0.7-2.5-1.3-3.4
						c-0.3-0.6-0.7-1.1-0.8-1.6c-0.2-0.5-0.3-1.2-0.3-1.9c-0.1-1.1-0.2-2.4-0.9-3.5c-0.8-1-2-1.5-3-2c-0.6-0.3-1.2-0.5-1.7-0.9
						c-0.4-0.3-0.9-0.8-1.3-1.3c-0.7-0.9-1.6-1.8-2.8-2.3c-0.3-0.1-0.7-0.2-1.2-0.2c-0.8,0-1.6,0.2-2.3,0.3
						c-0.7,0.2-1.3,0.3-1.9,0.3c-0.6,0-1.2-0.1-1.9-0.3c-0.7-0.2-1.5-0.3-2.3-0.4c-0.4,0-0.8,0.1-1.2,0.2c-1.3,0.5-2.1,1.4-2.8,2.3
						c-0.4,0.5-0.9,1-1.3,1.3c-0.4,0.3-1,0.6-1.6,0.9c-1,0.4-2.2,0.9-3,2c-0.7,1.1-0.8,2.3-0.9,3.4c-0.1,0.7-0.1,1.3-0.3,1.9
						c-0.1,0.5-0.5,1-0.8,1.6c-0.6,1-1.2,2.1-1.3,3.4c0,1.4,0.7,2.4,1.3,3.4c0.3,0.6,0.7,1.1,0.8,1.6c0.2,0.5,0.3,1.2,0.3,1.9
						c0.1,1.1,0.2,2.4,0.9,3.4c0.8,1,2,1.5,3,2c0.6,0.3,1.2,0.5,1.7,0.9c0.4,0.3,0.9,0.8,1.3,1.3c0.7,0.9,1.6,1.8,2.8,2.3
						c0.4,0.1,0.8,0.2,1.2,0.2c0.8,0,1.6-0.2,2.3-0.3C184.6,36.4,185.2,36.3,185.9,36.3C185.8,36.3,185.9,36.3,185.9,36.3z"/>
				</g>
			</g>
			<g id="XMLID_6275_">
				<path id="XMLID_6276_" class="st0" d="M191.6,19.2c-0.3-0.1-0.5-0.1-0.5-0.4c1.7-0.8,2.9-1.8,2.9-3.9c0-1.8-0.9-2.9-2.1-3.5
					c-1.3-0.6-3-0.8-4.7-0.8c-2.5,0-4.4,0.1-5.9,0.2c-2.7,0-4.2,1.6-4.2,3.6c0,1.7,1.2,2.9,2.3,3.6l2,1.3c1.5,1,1.6,1.9,1.7,2.8
					c0,1.2-0.8,2.3-2.5,2.3c-2.3,0-3.2-2-3.5-3c-0.1-0.1-0.2-0.1-0.3-0.1c-0.1,0-0.3,0.1-0.4,0.2l0,0v0c0,1,0.3,2.4,0.6,2.9
					c0.4,0.3,1.5,0.8,3.3,0.8c1.3,0,2.4-0.4,3.2-1v0.9c0,3-0.1,3.3-1.5,3.5l-0.5,0.1c-0.2,0.2-0.1,0.6,0.1,0.7c1,0,2-0.1,3.2-0.1
					c1.2,0,2.6,0.1,3.4,0.1c5.1,0,7.5-2.2,7.5-5.5C195.4,20.9,193.1,19.5,191.6,19.2z M185.6,12.4c0-0.5,0.1-0.6,0.4-0.7
					c0.3-0.1,0.7-0.2,1.3-0.2c2.1,0,4.2,1,4.2,3.8c0,2.6-1.5,3.5-4.4,3.6c-1.4,0.1-1.5,0-1.5-0.8V12.4z M181.9,17.3l-1.6-1
					c-0.8-0.5-1.7-1.3-1.7-2.5c0-0.9,0.4-2.2,2.4-2.2c1.2,0,1.8,0.5,2.2,1.1c0.1,0.4,0.1,0.9,0.1,1.7v4
					C182.9,18,182.4,17.6,181.9,17.3z M188.4,28.5c-0.8,0-1.7-0.1-2.2-0.8c-0.5-0.6-0.6-2.1-0.6-3.1v-4.2c0-0.6,0.1-0.7,1.6-0.7
					c4.5,0,5.6,2.6,5.6,4.8C192.8,27.4,190.9,28.5,188.4,28.5z"/>
			</g>
			<g id="XMLID_6271_">
				<path id="XMLID_6272_" class="st0" d="M185.8,34.4c-8,0-14.4-6.5-14.4-14.4c0-8,6.5-14.4,14.4-14.4c8,0,14.4,6.5,14.4,14.4
					C200.3,28,193.8,34.4,185.8,34.4z M185.8,6.2c-7.6,0-13.8,6.2-13.8,13.9c0,7.6,6.2,13.8,13.8,13.8s13.8-6.2,13.8-13.8
					C199.7,12.4,193.4,6.2,185.8,6.2z"/>
			</g>
		</g>
	</g>
	<g id="XMLID_6261_">
		<g id="XMLID_6265_">
			<path id="XMLID_6266_" class="st0" d="M370.8,13.4l-0.4-0.9c0-0.1-0.1-0.2-0.2-0.2c-0.1,0-0.2-0.1-0.2-0.1h-0.1v1.2h-0.5v-2.9
				h0.8c0.2,0,0.3,0,0.4,0c0.1,0,0.2,0.1,0.3,0.1c0.1,0.1,0.2,0.1,0.2,0.2c0.1,0.1,0.1,0.2,0.1,0.4c0,0.1,0,0.2,0,0.3
				c0,0.1-0.1,0.2-0.1,0.2c-0.1,0.1-0.1,0.1-0.2,0.1c-0.1,0-0.2,0.1-0.3,0.1c0.1,0,0.1,0.1,0.2,0.1c0.1,0.1,0.1,0.2,0.2,0.3l0.5,1
				H370.8z M370.7,11.4c0-0.1,0-0.2-0.1-0.3c-0.1-0.1-0.2-0.1-0.4-0.1h-0.2v0.8h0.2c0.1,0,0.2,0,0.2,0c0.1,0,0.1,0,0.2-0.1
				c0,0,0.1-0.1,0.1-0.1C370.6,11.5,370.7,11.5,370.7,11.4z"/>
		</g>
		<path id="XMLID_6262_" class="st0" d="M370.1,9.2c-1.5,0-2.8,1.2-2.8,2.8c0,1.5,1.2,2.8,2.8,2.8c1.5,0,2.8-1.2,2.8-2.8
			C372.9,10.4,371.7,9.2,370.1,9.2z M370.1,14.4c-1.3,0-2.4-1.1-2.4-2.4c0-1.3,1.1-2.4,2.4-2.4c1.3,0,2.4,1.1,2.4,2.4
			C372.6,13.3,371.5,14.4,370.1,14.4z"/>
	</g>
</g>
</svg>
