<?xml version="1.0" encoding="utf-8"?>
<!-- Generator: Adobe Illustrator 19.0.0, SVG Export Plug-In . SVG Version: 6.00 Build 0)  -->
<svg version="1.1" id="Layer_1" xmlns="http://www.w3.org/2000/svg" xmlns:xlink="http://www.w3.org/1999/xlink" x="0px" y="0px"
	 width="180px" height="45px" viewBox="0 0 180 45" style="enable-background:new 0 0 180 45;" xml:space="preserve">
<style type="text/css">
	.st0{fill:#FFFFFF;}
	.st1{fill:none;stroke:#FFFFFF;stroke-width:0.5756;stroke-miterlimit:10;}
</style>
<g id="XMLID_5818_">
	<g id="XMLID_5829_">
		<g id="XMLID_5849_">
			<path id="XMLID_5866_" class="st0" d="M57.7,14c-1.3-0.7-2.5-1.8-2.5-3.3c0-2,1.6-3.4,4.3-3.4c1,0,1.6,0.3,2.6,0.4
				c0.2,0.5,0.4,1.5,0.4,2.7c-0.1,0.2-0.6,0.2-0.7,0.1c-0.2-1-0.9-2.4-2.6-2.4C57.6,8.1,57,9,57,9.9c0,1,0.7,1.6,1.9,2.2l1.7,0.9
				c1,0.5,2.2,1.7,2.2,3.5c0,2.2-1.8,3.5-4.5,3.5c-1.7,0-2.8-0.6-3.2-0.9c-0.2-0.4-0.6-1.4-0.6-2.9c0.1-0.3,0.5-0.3,0.7-0.1
				c0.2,1,1.4,3,3.3,3c1.4,0,2.3-0.7,2.3-2c0-0.9-0.4-1.8-1.9-2.6L57.7,14z"/>
			<path id="XMLID_5864_" class="st0" d="M73.7,9.2c0-0.7,0-0.7-0.6-0.7h-0.9c-1.7,0-2.4,0.2-3.1,2.1c-0.3,0.2-0.6,0.1-0.7-0.1
				c0.3-1.2,0.6-2.6,0.7-3.3c0.1-0.1,0.4-0.1,0.5,0c0,0.6,0.4,0.5,1.5,0.5H79c1,0,1.2,0,1.4-0.5C80.6,7,80.9,7.1,81,7.2
				c-0.2,0.7-0.3,2.2-0.3,3.2c-0.1,0.2-0.6,0.3-0.7,0c-0.2-1.8-0.9-2-2.6-2h-0.9c-0.5,0-0.6,0-0.6,0.7v7.6c0,1.9,0.1,2.1,1.3,2.2
				l0.7,0.1c0.2,0.1,0.2,0.6-0.1,0.7c-1.1-0.1-2.2-0.1-3-0.1c-0.9,0-1.9,0-3,0.1c-0.2-0.1-0.2-0.6-0.1-0.7l0.7-0.1
				c1.2-0.1,1.3-0.3,1.3-2.2V9.2z"/>
			<path id="XMLID_5861_" class="st0" d="M89.5,15.4c-0.6,0-0.7,0-0.9,0.7l-0.6,1.8c-0.3,0.9-0.2,1,0.3,1.1l0.7,0.1
				c0.2,0.1,0.2,0.6-0.1,0.7c-0.7-0.1-1.4-0.1-2.2-0.1c-0.8,0-1.4,0.1-1.9,0.1c-0.2-0.1-0.2-0.6-0.1-0.7l0.6-0.1
				c0.9-0.2,1.2-0.5,1.7-1.8l2.7-6.4c0.5-1.1,0.7-1.8,0.7-2.3c0.5-0.2,1-0.7,1.2-1.1c0.2-0.1,0.4,0,0.4,0.1c0.1,0.3,0.6,1.7,1.2,3.4
				l2.5,6.6c0.3,0.9,0.6,1.3,1.6,1.5l0.4,0.1c0.2,0.1,0.2,0.6-0.1,0.7c-0.7-0.1-1.4-0.1-2.3-0.1c-1,0-1.8,0-2.5,0.1
				c-0.3-0.1-0.3-0.6-0.1-0.7l0.6-0.1c0.7-0.1,0.7-0.3,0.4-1.1L93.1,16c-0.2-0.6-0.3-0.7-0.9-0.7H89.5z M91.7,14.5
				c0.7,0,0.8-0.1,0.5-0.9l-0.9-2.4c-0.2-0.6-0.3-0.9-0.4-1h-0.1c-0.1,0.1-0.2,0.4-0.4,0.9l-1,2.5c-0.3,0.7-0.3,0.8,0.4,0.8H91.7z"
				/>
			<path id="XMLID_5858_" class="st0" d="M103.5,10.9c0-1.8,0-2.3-0.7-2.4l-0.8-0.1c-0.2,0-0.3-0.6,0-0.7c1.5-0.1,3.1-0.2,4.6-0.2
				c2.6,0,5.4,0.4,5.4,3.3c0,1.8-1.4,2.6-2.5,3c-0.1,0.1-0.1,0.3,0,0.4c1.4,2.3,2.6,3.7,3.5,4.4c0.5,0.4,1,0.6,1.5,0.6
				c0.1,0.1,0.1,0.4,0,0.4c-0.3,0.1-0.6,0.1-1.2,0.1c-1.7,0-2.7-0.5-3.9-2.1c-0.7-0.9-1.4-2.1-2-3c-0.2-0.3-0.7-0.4-1.1-0.4
				c-0.7,0-0.8,0.1-0.8,0.4v2c0,1.9,0.1,2.1,1.3,2.2l0.6,0.1c0.2,0.1,0.2,0.6-0.1,0.7c-1.2-0.1-2.1-0.1-2.9-0.1
				c-0.9,0-1.7,0-2.7,0.1c-0.3-0.1-0.3-0.6-0.1-0.7l0.4-0.1c1.2-0.2,1.3-0.3,1.3-2.2V10.9z M105.6,12.9c0,0.7,0,0.7,1.4,0.7
				c1.8,0,2.7-0.7,2.7-2.6c0-1.4-1-2.6-2.9-2.6c-1,0-1.2,0.1-1.2,0.8V12.9z"/>
			<path id="XMLID_5856_" class="st0" d="M122.9,9.2c0-0.7,0-0.7-0.6-0.7h-0.9c-1.7,0-2.4,0.2-3.1,2.1c-0.3,0.2-0.6,0.1-0.7-0.1
				c0.3-1.2,0.6-2.6,0.8-3.3c0.1-0.1,0.4-0.1,0.5,0c0,0.6,0.4,0.5,1.5,0.5h7.7c1,0,1.2,0,1.4-0.5c0.2-0.1,0.4-0.1,0.5,0.1
				c-0.2,0.7-0.3,2.2-0.3,3.2c-0.1,0.2-0.6,0.3-0.7,0c-0.2-1.8-0.9-2-2.6-2h-0.9c-0.5,0-0.6,0-0.6,0.7v7.6c0,1.9,0.1,2.1,1.3,2.2
				l0.7,0.1c0.2,0.1,0.2,0.6-0.1,0.7c-1.1-0.1-2.2-0.1-3-0.1c-0.9,0-1.9,0-3,0.1c-0.2-0.1-0.2-0.6-0.1-0.7l0.7-0.1
				c1.2-0.1,1.3-0.3,1.3-2.2V9.2z"/>
			<path id="XMLID_5854_" class="st0" d="M137.8,10.6c0-1.9-0.1-2-1.3-2.2L136,8.3c-0.2-0.1-0.2-0.6,0.1-0.7
				c1.1,0.1,1.9,0.1,2.8,0.1c0.9,0,1.7,0,2.8-0.1c0.2,0.1,0.2,0.6,0.1,0.7l-0.5,0.1c-1.2,0.2-1.3,0.3-1.3,2.2v6.2
				c0,1.9,0.1,2,1.3,2.2l0.5,0.1c0.2,0.1,0.2,0.6-0.1,0.7c-1.1-0.1-2-0.1-2.8-0.1c-0.9,0-1.7,0-2.8,0.1c-0.2-0.1-0.3-0.6-0.1-0.7
				l0.5-0.1c1.2-0.2,1.3-0.3,1.3-2.2V10.6z"/>
			<path id="XMLID_5852_" class="st0" d="M158.4,11.9c0-2.8-0.2-3.5-1.2-3.6l-0.9-0.1c-0.2-0.2-0.2-0.6,0.1-0.7
				c1,0.1,1.7,0.1,2.5,0.1c0.8,0,1.4,0,2.3-0.1c0.2,0.1,0.2,0.6,0,0.7l-0.8,0.1c-0.7,0.1-0.9,0.8-0.9,3.6v4.7c0,0.6,0,2.8,0.1,3.2
				c-0.1,0.2-0.3,0.3-0.6,0.2c-0.3-0.4-0.9-1-2.6-2.8l-4.2-4.5c-1.1-1.1-1.8-1.8-2.1-2.1c-0.1,0-0.1,0.3-0.1,1.2v3.7
				c0,2.8,0.2,3.5,1.2,3.6l0.9,0.1c0.2,0.2,0.2,0.6-0.1,0.7c-1-0.1-1.7-0.1-2.5-0.1c-0.8,0-1.3,0-2.3,0.1c-0.2-0.1-0.2-0.6,0-0.7
				l0.8-0.1c0.7-0.1,0.9-0.8,0.9-3.6v-5c0-0.9,0-1.3-0.6-1.7c-0.2-0.2-0.7-0.3-1-0.4l-0.4-0.1c-0.2-0.2-0.2-0.6,0.1-0.7
				c1.1,0.1,1.8,0.1,2.4,0.1c0.4,0,0.8,0,1.1-0.1c0.6,1.1,1.6,2.2,2.7,3.4l2.6,2.7c0.6,0.6,2.2,2.4,2.5,2.6c0.2-0.1,0.2-0.4,0.2-1.1
				V11.9z"/>
			<path id="XMLID_5850_" class="st0" d="M174,17.2c0-1.3,0-1.4-1.3-1.7l-0.9-0.2c-0.2-0.1-0.2-0.5,0-0.7c1.1,0.1,2.3,0.1,3.1,0.1
				c0.8,0,1.7,0,2.4-0.1c0.2,0.1,0.2,0.5,0.1,0.7l-0.5,0.1c-0.7,0.2-0.8,0.3-0.8,1.5v0.8c0,0.7,0.1,1.1,0.4,1.3
				c0.1,0.1,0.1,0.3,0,0.4c-0.3,0-0.9,0.2-1.7,0.3c-0.7,0.1-1.7,0.3-2.8,0.3c-2.5,0-4.5-0.6-6-2.1c-1.2-1.2-1.7-2.8-1.7-4.2
				c0-1.6,0.6-3.1,1.7-4.4c1.3-1.3,3.2-2.2,6.1-2.2c1.5,0,2.9,0.4,3.7,0.6c0,0.6,0.1,1.7,0.3,3.1c-0.1,0.2-0.6,0.3-0.7,0
				c-0.7-2.2-1.9-2.9-3.9-2.9c-2.9,0-4.7,2.2-4.7,5.5c0,3.4,2.1,5.7,5.5,5.7c1.5,0,1.7-0.3,1.7-1.4V17.2z"/>
		</g>
		<g id="XMLID_5830_">
			<path id="XMLID_5845_" class="st0" d="M55.2,28.8c0-1.8,0-2.2-0.8-2.4l-0.9-0.1c-0.3-0.1-0.2-0.6,0-0.7c1.4-0.1,3-0.2,4.6-0.2
				c1.4,0,2.5,0.1,3.5,0.4c1,0.4,1.7,1.1,1.7,2.4c0,1.2-0.8,1.9-2.2,2.4c-0.1,0.2,0.1,0.2,0.7,0.4c1,0.2,2.5,1.1,2.5,3
				c0,1.5-0.7,2.4-1.8,2.9c-1.1,0.5-2.5,0.6-3.8,0.6c-0.6,0-1.5-0.1-2.5-0.1c-0.9,0-1.8,0-2.9,0.1c-0.2-0.1-0.2-0.6-0.1-0.7l0.5-0.1
				c1.2-0.2,1.3-0.3,1.3-2.2V28.8z M57.3,30.3c0,0.4,0.1,0.5,0.9,0.5c1.7,0,2.9-0.4,2.9-2.2c0-1.7-1.2-2.3-2.7-2.3
				c-1.2,0-1.2,0.2-1.2,0.7V30.3z M57.3,34.7c0,1.7,0.4,2.2,2.1,2.2c1.4,0,2.7-0.6,2.7-2.5c0-2.2-1.7-2.9-3.5-2.9
				c-1.2,0-1.3,0.1-1.3,0.5V34.7z"/>
			<path id="XMLID_5843_" class="st0" d="M71.2,28.5c0-1.9-0.1-2-1.3-2.2l-0.4-0.1c-0.2-0.1-0.2-0.6,0.1-0.7
				c0.9,0.1,1.8,0.1,2.7,0.1c0.9,0,1.7,0,2.8-0.1c0.2,0.1,0.2,0.6,0.1,0.7l-0.5,0.1c-1.2,0.2-1.3,0.3-1.3,2.2v3.9
				c0,2.8,0.9,4.7,3.6,4.7c2.5,0,3.6-1.9,3.6-4.6v-2.6c0-2.8-0.2-3.4-1.4-3.6l-0.6-0.1c-0.2-0.2-0.2-0.6,0.1-0.7
				c0.9,0.1,1.5,0.1,2.3,0.1c0.8,0,1.4,0,2.3-0.1c0.2,0.1,0.2,0.6,0,0.7l-0.8,0.1c-0.7,0.1-0.9,0.8-0.9,3.6v2.7
				c0,3.5-1.6,5.4-5.2,5.4c-1.8,0-3.1-0.4-3.9-1.2c-0.8-0.8-1.2-2.1-1.2-3.9V28.5z"/>
			<path id="XMLID_5841_" class="st0" d="M91.5,31.9c-1.3-0.7-2.5-1.8-2.5-3.3c0-2,1.6-3.4,4.4-3.4c1,0,1.6,0.2,2.6,0.4
				c0.2,0.5,0.4,1.5,0.4,2.7c-0.1,0.2-0.6,0.2-0.7,0.1c-0.2-1-0.9-2.4-2.6-2.4c-1.6,0-2.2,0.9-2.2,1.9c0,1,0.7,1.6,1.9,2.2l1.7,0.9
				c1,0.5,2.2,1.7,2.2,3.5c0,2.2-1.8,3.5-4.5,3.5c-1.7,0-2.8-0.6-3.2-0.9c-0.3-0.4-0.6-1.4-0.6-2.9c0.1-0.3,0.5-0.3,0.7-0.1
				c0.2,1,1.4,3,3.3,3c1.4,0,2.3-0.7,2.3-2c0-0.9-0.4-1.8-1.9-2.6L91.5,31.9z"/>
			<path id="XMLID_5839_" class="st0" d="M105.2,28.5c0-1.9-0.1-2-1.3-2.2l-0.5-0.1c-0.2-0.1-0.2-0.6,0.1-0.7
				c1.1,0.1,1.9,0.1,2.8,0.1c0.9,0,1.7,0,2.8-0.1c0.2,0.1,0.2,0.6,0.1,0.7l-0.5,0.1c-1.2,0.2-1.3,0.3-1.3,2.2v6.2
				c0,1.9,0.1,2,1.3,2.2l0.5,0.1c0.2,0.1,0.2,0.6-0.1,0.7c-1.1-0.1-2-0.1-2.8-0.1c-0.9,0-1.7,0-2.8,0.1c-0.2-0.1-0.2-0.6-0.1-0.7
				l0.5-0.1c1.2-0.2,1.3-0.3,1.3-2.2V28.5z"/>
			<path id="XMLID_5837_" class="st0" d="M127.3,29.8c0-2.8-0.2-3.5-1.2-3.6l-0.9-0.1c-0.2-0.2-0.2-0.6,0.1-0.7
				c1,0.1,1.7,0.1,2.5,0.1c0.8,0,1.4,0,2.3-0.1c0.2,0.1,0.2,0.6,0,0.7l-0.8,0.1c-0.7,0.1-0.9,0.8-0.9,3.6v4.7c0,0.6,0,2.8,0.1,3.2
				c-0.1,0.2-0.3,0.3-0.6,0.2c-0.3-0.4-0.9-1-2.6-2.8l-4.2-4.5c-1.1-1.1-1.8-1.8-2.1-2.1c-0.1,0-0.1,0.3-0.1,1.2v3.7
				c0,2.8,0.2,3.5,1.2,3.6l0.9,0.1c0.2,0.2,0.2,0.6-0.1,0.7c-1-0.1-1.7-0.1-2.5-0.1c-0.8,0-1.3,0-2.3,0.1c-0.2-0.1-0.2-0.6,0-0.7
				l0.8-0.1c0.7-0.1,0.9-0.8,0.9-3.6v-5c0-0.9,0-1.3-0.6-1.7c-0.2-0.2-0.7-0.3-1-0.4l-0.4-0.1c-0.2-0.2-0.2-0.6,0.1-0.7
				c1.1,0.1,1.8,0.1,2.4,0.1c0.4,0,0.8,0,1.1-0.1c0.6,1.1,1.6,2.2,2.7,3.4l2.6,2.7c0.6,0.6,2.2,2.4,2.5,2.6c0.2-0.1,0.2-0.4,0.2-1.1
				V29.8z"/>
			<path id="XMLID_5835_" class="st0" d="M137.7,28.5c0-1.9-0.1-2-1.2-2.2l-0.4-0.1c-0.2-0.1-0.2-0.6,0.1-0.7c0.4,0,0.8,0.1,1.2,0.1
				c0.4,0,0.9,0,1.3,0h3.9c1.2,0,2.3,0,2.6-0.1c0,0.3,0.2,1.6,0.3,2.8c-0.1,0.2-0.6,0.2-0.7,0.1c-0.2-0.7-0.3-1.1-0.5-1.3
				c-0.4-0.7-1.7-0.7-2.4-0.7h-1.2c-1,0-1,0-1,0.9v3.1c0,0.5,0,0.6,0.5,0.6h1.3c1.5,0,1.6-0.2,1.8-1.1l0.1-0.5
				c0.1-0.2,0.6-0.2,0.7,0.1c-0.1,0.8-0.1,1.3-0.1,1.9c0,0.7,0,1.2,0.1,2c-0.1,0.2-0.6,0.3-0.7,0.1l-0.1-0.5
				c-0.2-0.8-0.4-1.1-1.8-1.1h-1.3c-0.5,0-0.5,0.1-0.5,0.6v2c0,0.8,0.1,1.7,0.3,2c0.2,0.3,0.7,0.4,2.3,0.4c1.8,0,2.8-0.1,3.6-2.3
				c0.2-0.2,0.6-0.1,0.7,0.1c-0.1,1.2-0.5,2.5-0.8,3.1c-0.9,0-1.7-0.1-2.4-0.1c-0.8,0-1.5,0-2.3,0h-2.4c-0.9,0-1.7,0-3.1,0.1
				c-0.2-0.1-0.2-0.6-0.1-0.7l0.7-0.1c1.2-0.1,1.3-0.3,1.3-2.2V28.5z"/>
			<path id="XMLID_5833_" class="st0" d="M156.3,31.9c-1.3-0.7-2.5-1.8-2.5-3.3c0-2,1.6-3.4,4.4-3.4c1,0,1.6,0.2,2.6,0.4
				c0.2,0.5,0.4,1.5,0.4,2.7c-0.1,0.2-0.6,0.2-0.7,0.1c-0.2-1-0.9-2.4-2.6-2.4c-1.6,0-2.2,0.9-2.2,1.9c0,1,0.7,1.6,1.9,2.2l1.7,0.9
				c1,0.5,2.2,1.7,2.2,3.5c0,2.2-1.8,3.5-4.5,3.5c-1.7,0-2.8-0.6-3.2-0.9c-0.3-0.4-0.6-1.4-0.6-2.9c0.1-0.3,0.5-0.3,0.7-0.1
				c0.2,1,1.4,3,3.3,3c1.4,0,2.3-0.7,2.3-2c0-0.9-0.4-1.8-1.9-2.6L156.3,31.9z"/>
			<path id="XMLID_5831_" class="st0" d="M171.2,31.9c-1.3-0.7-2.5-1.8-2.5-3.3c0-2,1.6-3.4,4.3-3.4c1,0,1.6,0.2,2.6,0.4
				c0.2,0.5,0.4,1.5,0.4,2.7c-0.1,0.2-0.6,0.2-0.7,0.1c-0.2-1-0.9-2.4-2.6-2.4c-1.6,0-2.2,0.9-2.2,1.9c0,1,0.7,1.6,1.9,2.2l1.7,0.9
				c1,0.5,2.2,1.7,2.2,3.5c0,2.2-1.8,3.5-4.5,3.5c-1.7,0-2.8-0.6-3.2-0.9c-0.2-0.4-0.6-1.4-0.6-2.9c0.1-0.3,0.5-0.3,0.7-0.1
				c0.2,1,1.4,3,3.3,3c1.4,0,2.3-0.7,2.3-2c0-0.9-0.4-1.8-1.9-2.6L171.2,31.9z"/>
		</g>
	</g>
	<g id="XMLID_5819_">
		<g id="XMLID_5827_">
			<path id="XMLID_5828_" class="st1" d="M41.9,16.5c-0.6-1.6-0.1-4.2-1.5-6.3c-1.6-2.1-4.3-2.4-5.5-3.4c-1.3-0.9-2.4-3.3-4.9-4.2
				c-0.5-0.2-1-0.2-1.5-0.2c-1.9,0-3.6,0.8-5,0.7c-1.4,0-3.1-0.7-5-0.7c-0.5,0-1,0.1-1.5,0.2c-2.5,0.9-3.6,3.3-4.9,4.2
				c-1.3,1-3.9,1.3-5.5,3.4C5,12.4,5.6,14.9,5,16.5c-0.4,1.5-2.4,3.3-2.5,6c0.1,2.7,2.1,4.5,2.5,6c0.6,1.6,0.1,4.2,1.5,6.3
				c1.6,2.1,4.3,2.4,5.5,3.4c1.4,0.9,2.4,3.3,4.9,4.2c0.5,0.2,1,0.2,1.5,0.2c1.9,0,3.6-0.8,5-0.7c1.3,0,3.1,0.7,5,0.7
				c0.5,0,1-0.1,1.5-0.2c2.5-0.9,3.6-3.3,4.9-4.2c1.3-1,3.9-1.3,5.5-3.4c1.5-2.2,0.9-4.7,1.5-6.3c0.4-1.5,2.4-3.3,2.5-6
				C44.3,19.8,42.3,18,41.9,16.5z"/>
		</g>
		<g id="XMLID_5821_">
			<path id="XMLID_5822_" class="st0" d="M30.2,21.6c-0.4-0.1-0.6-0.2-0.6-0.5c2-0.9,3.4-2.1,3.4-4.5c0-2.1-1.1-3.4-2.5-4.1
				c-1.5-0.8-3.5-0.9-5.5-0.9c-2.9,0-5.1,0.1-6.9,0.2c-3.1,0-4.9,1.9-4.9,4.2c0,2,1.4,3.4,2.6,4.2l2.3,1.5C19.8,22.8,20,24,20,25
				c0,1.4-0.9,2.7-2.9,2.7c-2.7,0-3.7-2.3-4.1-3.5C12.9,24,12.8,24,12.7,24c-0.2,0-0.3,0.1-0.4,0.2l0,0v0c0.1,1.2,0.4,2.9,0.7,3.4
				c0.5,0.3,1.8,0.9,3.8,0.9c1.5,0,2.8-0.4,3.7-1.2v1c0,3.5-0.1,3.9-1.8,4.1l-0.6,0.1c-0.2,0.2-0.1,0.7,0.1,0.8
				c1.2,0,2.3-0.1,3.8-0.1c1.4,0,3,0.1,4,0.1c5.9,0,8.8-2.6,8.8-6.4C34.6,23.6,32,21.9,30.2,21.6z M23.2,13.6c0-0.6,0.1-0.8,0.5-0.9
				c0.3-0.1,0.8-0.2,1.5-0.2c2.5,0,4.9,1.2,4.9,4.5c0,3.1-1.8,4.1-5.2,4.2c-1.7,0.1-1.7,0-1.7-0.9V13.6z M18.9,19.4L17,18.2
				c-0.9-0.6-2-1.5-2-2.9c0-1.1,0.5-2.6,2.8-2.6c1.4,0,2.1,0.6,2.6,1.3c0.1,0.5,0.1,1.1,0.1,2v4.7C20,20.1,19.5,19.7,18.9,19.4z
				 M26.5,32.5c-1,0-2-0.2-2.6-0.9c-0.6-0.7-0.7-2.4-0.7-3.6v-4.9c0-0.7,0.1-0.9,1.9-0.9c5.2,0,6.6,3,6.6,5.6
				C31.6,31.1,29.4,32.5,26.5,32.5z"/>
		</g>
		<path id="XMLID_5820_" class="st1" d="M6.9,22.5c0,9.1,7.4,16.6,16.6,16.6c9.1,0,16.6-7.4,16.6-16.6c0-9.2-7.4-16.6-16.6-16.6
			C14.3,5.9,6.9,13.4,6.9,22.5z"/>
	</g>
</g>
</svg>
