<?xml version="1.0" encoding="utf-8"?>
<!-- Generator: Adobe Illustrator 19.0.0, SVG Export Plug-In . SVG Version: 6.00 Build 0)  -->
<svg version="1.1" id="Layer_1" xmlns="http://www.w3.org/2000/svg" xmlns:xlink="http://www.w3.org/1999/xlink" x="0px" y="0px"
	 width="110px" height="110px" viewBox="0 0 110 110" style="enable-background:new 0 0 110 110;" xml:space="preserve">
<style type="text/css">
	.st0{fill:#FFFFFF;}
</style>
<g id="XMLID_6713_">
	<g id="XMLID_6722_">
		<g id="XMLID_6723_">
			<g id="XMLID_6734_">
				<g id="XMLID_6735_">
					<path id="XMLID_6736_" class="st0" d="M66.9,104.2c-2.5,0-4.8-0.6-6.9-1c-1.8-0.4-3.5-0.8-5-0.8c-1.5,0-3.2,0.4-5,0.8
						c-2.1,0.5-4.4,1-6.9,1c-1.3,0-2.7-0.2-3.9-0.6c-4-1.4-6.6-4.5-8.7-6.9c-1.2-1.4-2.3-2.6-3.4-3.3c-1.1-0.9-2.7-1.5-4.3-2.2
						c-3.1-1.3-6.6-2.8-9.1-6.1c-2.4-3.5-2.7-7.2-3-10.5c-0.2-1.8-0.3-3.5-0.8-4.8c-0.4-1.3-1.2-2.6-2.1-4.2
						C6.1,62.7,4.1,59.3,3.9,55c0.1-4.3,2.2-7.8,3.9-10.5c0.9-1.6,1.8-2.9,2.1-4.1c0.5-1.4,0.7-3.1,0.8-4.9c0.3-3.3,0.6-7,2.9-10.5
						c2.6-3.3,6.1-4.8,9.2-6.1c1.7-0.7,3.2-1.4,4.3-2.2c1.2-0.8,2.2-2,3.4-3.4c2.1-2.4,4.7-5.4,8.6-6.8c1.2-0.4,2.5-0.6,3.9-0.6
						c2.5,0,4.8,0.6,6.9,1c1.8,0.4,3.5,0.8,5,0.8c1.5,0,3.2-0.4,5-0.8c2.1-0.5,4.5-1,6.9-1c1.5,0,2.7,0.2,3.9,0.6
						c4,1.4,6.6,4.5,8.7,6.9c1.2,1.4,2.2,2.6,3.3,3.3c1.1,0.9,2.7,1.5,4.3,2.2c3.1,1.3,6.6,2.8,9.2,6.1c2.4,3.5,2.7,7.2,3,10.5
						c0.2,1.8,0.3,3.5,0.8,4.8l0,0.1c0.3,1.2,1.1,2.6,2.1,4.1c1.7,2.7,3.7,6.2,3.9,10.5c-0.1,4.3-2.2,7.8-3.9,10.5
						c-0.9,1.6-1.8,2.9-2.1,4.1c-0.5,1.4-0.7,3.1-0.8,4.9c-0.3,3.3-0.6,7.1-3,10.5c-2.6,3.4-6.1,4.8-9.2,6.1
						c-1.7,0.7-3.2,1.4-4.3,2.2c-1.2,0.8-2.2,2-3.4,3.4c-2.1,2.4-4.7,5.4-8.7,6.9C69.6,104,68.3,104.2,66.9,104.2z M55.2,100.7
						c1.6,0,3.3,0.4,5.2,0.8c2.1,0.5,4.3,0.9,6.5,1c1.2,0,2.3-0.2,3.3-0.5c3.5-1.3,5.9-4,7.9-6.4c1.2-1.4,2.4-2.8,3.7-3.6
						c1.2-0.9,2.8-1.6,4.6-2.4c2.9-1.2,6.2-2.6,8.5-5.6c2.1-3,2.4-6.6,2.6-9.7c0.2-1.9,0.3-3.7,0.9-5.2c0.4-1.4,1.3-2.9,2.3-4.5
						c1.6-2.7,3.5-5.8,3.6-9.6c-0.1-3.8-2-6.9-3.6-9.6c-1-1.6-1.9-3.1-2.3-4.5c-0.6-1.5-0.7-3.3-0.9-5.2C97.4,32.5,97,29,95,25.9
						c-2.3-2.9-5.6-4.3-8.5-5.5c-1.8-0.7-3.4-1.4-4.6-2.4c-1.2-0.8-2.4-2.2-3.6-3.6c-2.1-2.4-4.4-5.1-8-6.4c-1-0.3-2.1-0.5-3.3-0.5
						c-2.3,0-4.5,0.5-6.6,1c-1.9,0.4-3.8,0.8-5.3,0.8c-1.6,0-3.4-0.4-5.3-0.8c-2.1-0.5-4.3-1-6.6-1c-1.2,0-2.3,0.2-3.4,0.5
						c-3.5,1.3-5.9,4-7.9,6.4c-1.2,1.4-2.4,2.8-3.7,3.6c-1.2,0.9-2.8,1.6-4.6,2.4C20.6,21.6,17.3,23,15,26c-2,3-2.4,6.5-2.6,9.6
						c-0.2,1.9-0.3,3.8-0.9,5.3c-0.4,1.4-1.3,2.9-2.3,4.5c-1.6,2.7-3.5,5.8-3.6,9.6c0.1,3.8,2,6.9,3.6,9.6c1,1.6,1.9,3.1,2.3,4.6
						c0.5,1.4,0.7,3.3,0.9,5.2c0.3,3.1,0.6,6.6,2.7,9.7c2.3,2.9,5.6,4.3,8.4,5.5c1.8,0.7,3.4,1.5,4.7,2.4c1.2,0.8,2.4,2.2,3.6,3.6
						c2.1,2.4,4.4,5.1,8,6.4c1,0.3,2.2,0.5,3.3,0.5c2.3,0,4.4-0.5,6.5-1c1.9-0.4,3.8-0.8,5.4-0.8C55.1,100.7,55.1,100.7,55.2,100.7z
						"/>
				</g>
			</g>
			<g id="XMLID_6728_">
				<path id="XMLID_6729_" class="st0" d="M71.3,52.8c-0.9-0.2-1.5-0.4-1.5-1.2c4.8-2.2,8.1-5.1,8.1-10.8c0-5.1-2.6-8.2-6-9.9
					c-3.6-1.8-8.3-2.2-13.3-2.2c-7.1,0-12.3,0.2-16.5,0.6c-7.5,0.1-11.8,4.6-11.9,10.2c0,4.9,3.4,8.2,6.3,10.1l5.5,3.6
					c4.2,2.7,4.6,5.4,4.6,7.9c0,3.4-2.3,6.4-7,6.4c-6.6,0-8.9-5.5-9.7-8.5c-0.2-0.3-0.5-0.4-0.7-0.4c-0.4,0-0.8,0.1-1,0.5l0,0.1v0.1
					c0.1,2.8,0.9,6.8,1.6,8.2c1.2,0.7,4.3,2.2,9.2,2.2c3.7,0,6.7-1.1,8.9-2.9v2.4c0,8.3-0.2,9.3-4.4,9.9l-1.4,0.2
					c-0.5,0.5-0.3,1.7,0.2,2c2.9-0.1,5.6-0.2,9.1-0.2c3.3,0,7.2,0.2,9.5,0.2c14.2,0,21-6.2,21-15.3C81.9,57.5,75.5,53.6,71.3,52.8z
					 M54.3,33.6c0-1.4,0.3-1.8,1.1-2.1c0.7-0.3,1.9-0.5,3.6-0.5c6,0,11.8,2.9,11.8,10.7c0,7.4-4.4,9.8-12.4,10.1
					c-4,0.2-4.1,0-4.1-2.2V33.6z M44.1,47.5l-4.6-2.9c-2.1-1.4-4.8-3.7-4.8-6.9c0-2.6,1.1-6.2,6.7-6.2c3.3,0,5.1,1.4,6.2,3
					c0.2,1.1,0.3,2.6,0.3,4.7v11.2C46.7,49.2,45.4,48.3,44.1,47.5z M62.3,78.9c-2.4,0-4.7-0.4-6.2-2.2c-1.5-1.7-1.7-5.8-1.7-8.6
					V56.3c0-1.6,0.3-2.1,4.6-2.1c12.6,0,15.7,7.3,15.7,13.5C74.7,75.7,69.3,78.9,62.3,78.9z"/>
			</g>
			<g id="XMLID_6724_">
				<path id="XMLID_6725_" class="st0" d="M55,95.6c-22.4,0-40.6-18.2-40.6-40.6c0-22.4,18.2-40.6,40.6-40.6
					c22.4,0,40.6,18.2,40.6,40.6C95.6,77.4,77.4,95.6,55,95.6z M55,16.1c-21.5,0-38.9,17.5-38.9,38.9c0,21.5,17.5,38.9,38.9,38.9
					S93.9,76.5,93.9,55C93.9,33.6,76.5,16.1,55,16.1z"/>
			</g>
		</g>
	</g>
</g>
</svg>
